<mxfile host="65bd71144e">
    <diagram id="1jWpQOii6SPy_KasVZw6" name="Page-1">
        <mxGraphModel dx="832" dy="2244" grid="1" gridSize="10" guides="1" tooltips="1" connect="1" arrows="1" fold="1" page="1" pageScale="1" pageWidth="850" pageHeight="1100" math="0" shadow="0">
            <root>
                <mxCell id="0"/>
                <mxCell id="1" parent="0"/>
                <mxCell id="42" style="edgeStyle=orthogonalEdgeStyle;html=1;entryX=0.5;entryY=0;entryDx=0;entryDy=0;" edge="1" parent="1" source="2" target="36">
                    <mxGeometry relative="1" as="geometry">
                        <mxPoint x="445" y="-120" as="targetPoint"/>
                    </mxGeometry>
                </mxCell>
                <mxCell id="2" value="User inputs&lt;br&gt;(acc, brk, pindal, gear lever)" style="html=1;" vertex="1" parent="1">
                    <mxGeometry x="360" y="-100" width="170" height="50" as="geometry"/>
                </mxCell>
                <mxCell id="13" value="false" style="edgeStyle=none;html=1;entryX=0.5;entryY=0;entryDx=0;entryDy=0;" edge="1" parent="1" source="5" target="9">
                    <mxGeometry relative="1" as="geometry"/>
                </mxCell>
                <mxCell id="15" value="true" style="edgeStyle=orthogonalEdgeStyle;html=1;entryX=0.42;entryY=0.031;entryDx=0;entryDy=0;entryPerimeter=0;exitX=1;exitY=0.5;exitDx=0;exitDy=0;" edge="1" parent="1" source="5" target="12">
                    <mxGeometry relative="1" as="geometry"/>
                </mxCell>
                <mxCell id="5" value="Is braking?" style="rhombus;whiteSpace=wrap;html=1;" vertex="1" parent="1">
                    <mxGeometry x="340" y="290" width="210" height="80" as="geometry"/>
                </mxCell>
                <mxCell id="17" style="edgeStyle=none;html=1;entryX=0.5;entryY=0;entryDx=0;entryDy=0;" edge="1" parent="1" source="9" target="16">
                    <mxGeometry relative="1" as="geometry"/>
                </mxCell>
                <mxCell id="9" value="Calculate engine output torque based on&lt;br&gt;&amp;nbsp;engine torque-rpm curve" style="html=1;" vertex="1" parent="1">
                    <mxGeometry x="300" y="420" width="290" height="50" as="geometry"/>
                </mxCell>
                <mxCell id="18" style="edgeStyle=orthogonalEdgeStyle;html=1;entryX=0.5;entryY=0;entryDx=0;entryDy=0;" edge="1" parent="1" source="12" target="16">
                    <mxGeometry relative="1" as="geometry">
                        <Array as="points">
                            <mxPoint x="705" y="500"/>
                            <mxPoint x="445" y="500"/>
                        </Array>
                    </mxGeometry>
                </mxCell>
                <mxCell id="12" value="Set engine output&lt;br&gt;&amp;nbsp;torque as 0" style="html=1;" vertex="1" parent="1">
                    <mxGeometry x="650" y="420" width="110" height="50" as="geometry"/>
                </mxCell>
                <mxCell id="20" value="D" style="edgeStyle=none;html=1;entryX=0.5;entryY=0;entryDx=0;entryDy=0;" edge="1" parent="1" source="16" target="19">
                    <mxGeometry relative="1" as="geometry"/>
                </mxCell>
                <mxCell id="22" value="R" style="edgeStyle=orthogonalEdgeStyle;html=1;entryX=0.5;entryY=0;entryDx=0;entryDy=0;exitX=1;exitY=0.5;exitDx=0;exitDy=0;" edge="1" parent="1" source="16" target="21">
                    <mxGeometry relative="1" as="geometry"/>
                </mxCell>
                <mxCell id="24" value="N or P" style="edgeStyle=orthogonalEdgeStyle;html=1;entryX=0.5;entryY=0;entryDx=0;entryDy=0;exitX=0;exitY=0.5;exitDx=0;exitDy=0;" edge="1" parent="1" source="16" target="23">
                    <mxGeometry relative="1" as="geometry"/>
                </mxCell>
                <mxCell id="16" value="Gear lever pos" style="rhombus;whiteSpace=wrap;html=1;" vertex="1" parent="1">
                    <mxGeometry x="340" y="530" width="210" height="80" as="geometry"/>
                </mxCell>
                <mxCell id="28" style="edgeStyle=orthogonalEdgeStyle;html=1;" edge="1" parent="1" source="19" target="25">
                    <mxGeometry relative="1" as="geometry"/>
                </mxCell>
                <mxCell id="19" value="Positive traction force" style="html=1;" vertex="1" parent="1">
                    <mxGeometry x="370" y="670" width="150" height="50" as="geometry"/>
                </mxCell>
                <mxCell id="29" style="edgeStyle=orthogonalEdgeStyle;html=1;" edge="1" parent="1" source="21" target="25">
                    <mxGeometry relative="1" as="geometry">
                        <Array as="points">
                            <mxPoint x="650" y="770"/>
                            <mxPoint x="445" y="770"/>
                        </Array>
                    </mxGeometry>
                </mxCell>
                <mxCell id="21" value="Negative traction force" style="html=1;" vertex="1" parent="1">
                    <mxGeometry x="580" y="670" width="140" height="50" as="geometry"/>
                </mxCell>
                <mxCell id="27" style="edgeStyle=orthogonalEdgeStyle;html=1;" edge="1" parent="1" source="23" target="25">
                    <mxGeometry relative="1" as="geometry">
                        <Array as="points">
                            <mxPoint x="255" y="770"/>
                            <mxPoint x="445" y="770"/>
                        </Array>
                    </mxGeometry>
                </mxCell>
                <mxCell id="23" value="No traction force" style="html=1;" vertex="1" parent="1">
                    <mxGeometry x="180" y="670" width="150" height="50" as="geometry"/>
                </mxCell>
                <mxCell id="30" style="edgeStyle=orthogonalEdgeStyle;html=1;entryX=0.5;entryY=0;entryDx=0;entryDy=0;" edge="1" parent="1" source="25" target="26">
                    <mxGeometry relative="1" as="geometry"/>
                </mxCell>
                <mxCell id="25" value="Calculate aerodynamic force" style="html=1;" vertex="1" parent="1">
                    <mxGeometry x="360" y="810" width="170" height="50" as="geometry"/>
                </mxCell>
                <mxCell id="32" style="edgeStyle=orthogonalEdgeStyle;html=1;" edge="1" parent="1" source="26" target="31">
                    <mxGeometry relative="1" as="geometry"/>
                </mxCell>
                <mxCell id="26" value="Calculate vehicle acceleration&lt;br&gt;based on engine output&lt;br&gt;&amp;nbsp;and other kinds of force" style="html=1;" vertex="1" parent="1">
                    <mxGeometry x="360" y="920" width="170" height="50" as="geometry"/>
                </mxCell>
                <mxCell id="34" style="edgeStyle=orthogonalEdgeStyle;html=1;" edge="1" parent="1" source="31" target="33">
                    <mxGeometry relative="1" as="geometry"/>
                </mxCell>
                <mxCell id="31" value="Calculate vehicle speed&lt;br&gt;&amp;nbsp;based on v1 = v0 + dV" style="html=1;" vertex="1" parent="1">
                    <mxGeometry x="360" y="1030" width="170" height="50" as="geometry"/>
                </mxCell>
                <mxCell id="46" style="edgeStyle=orthogonalEdgeStyle;html=1;" edge="1" parent="1" source="33" target="35">
                    <mxGeometry relative="1" as="geometry"/>
                </mxCell>
                <mxCell id="33" value="Shift gears based on&lt;br&gt;&amp;nbsp;current vehicle speed" style="html=1;" vertex="1" parent="1">
                    <mxGeometry x="360" y="1140" width="170" height="50" as="geometry"/>
                </mxCell>
                <mxCell id="47" style="edgeStyle=orthogonalEdgeStyle;html=1;entryX=0.5;entryY=0;entryDx=0;entryDy=0;" edge="1" parent="1" source="35" target="2">
                    <mxGeometry relative="1" as="geometry">
                        <Array as="points">
                            <mxPoint x="40" y="1265"/>
                            <mxPoint x="40" y="-160"/>
                            <mxPoint x="445" y="-160"/>
                        </Array>
                    </mxGeometry>
                </mxCell>
                <mxCell id="35" value="Shift gears based on&lt;br&gt;&amp;nbsp;current vehicle speed" style="html=1;" vertex="1" parent="1">
                    <mxGeometry x="360" y="1240" width="170" height="50" as="geometry"/>
                </mxCell>
                <mxCell id="40" value="true" style="edgeStyle=orthogonalEdgeStyle;html=1;" edge="1" parent="1" source="36" target="39">
                    <mxGeometry relative="1" as="geometry"/>
                </mxCell>
                <mxCell id="44" value="false" style="edgeStyle=orthogonalEdgeStyle;html=1;entryX=0;entryY=0.5;entryDx=0;entryDy=0;" edge="1" parent="1" source="36" target="43">
                    <mxGeometry relative="1" as="geometry"/>
                </mxCell>
                <mxCell id="36" value="Is braking and ignition ON?" style="rhombus;whiteSpace=wrap;html=1;" vertex="1" parent="1">
                    <mxGeometry x="340" y="35" width="210" height="80" as="geometry"/>
                </mxCell>
                <mxCell id="41" style="edgeStyle=orthogonalEdgeStyle;html=1;entryX=0.5;entryY=0;entryDx=0;entryDy=0;" edge="1" parent="1" source="39" target="5">
                    <mxGeometry relative="1" as="geometry"/>
                </mxCell>
                <mxCell id="39" value="Start engine" style="html=1;" vertex="1" parent="1">
                    <mxGeometry x="360" y="190" width="170" height="50" as="geometry"/>
                </mxCell>
                <mxCell id="45" value="" style="edgeStyle=orthogonalEdgeStyle;html=1;entryX=1;entryY=0.5;entryDx=0;entryDy=0;exitX=0.5;exitY=0;exitDx=0;exitDy=0;" edge="1" parent="1" source="43" target="2">
                    <mxGeometry relative="1" as="geometry"/>
                </mxCell>
                <mxCell id="43" value="Engine OFF" style="html=1;" vertex="1" parent="1">
                    <mxGeometry x="620" y="50" width="170" height="50" as="geometry"/>
                </mxCell>
            </root>
        </mxGraphModel>
    </diagram>
</mxfile>